<svg width="22" height="18" viewBox="0 0 22 18" fill="none" xmlns="http://www.w3.org/2000/svg">
<path d="M22 18.0001V15.1315C20.8847 14.8925 19.9924 14.4144 19.3232 13.6973C18.5982 12.9801 18.0963 12.0957 17.8175 11.0439C17.4829 9.99209 17.3156 8.82078 17.3156 7.52994H21.1635V6.10352e-05H12.9658V6.7411C12.9658 9.4662 13.4398 11.6176 14.3878 13.1953C15.3359 14.773 16.507 15.9204 17.9011 16.6375C19.2395 17.3068 20.6058 17.761 22 18.0001ZM8.95057 18.0001V15.1315C7.891 14.8925 7.02662 14.4144 6.35741 13.6973C5.63245 12.9801 5.13054 12.0957 4.85171 11.0439C4.51711 9.99209 4.34981 8.82078 4.34981 7.52994H8.19772V6.10352e-05H0V6.7411C0 9.4662 0.474018 11.6176 1.42205 13.1953C2.31432 14.773 3.45754 15.9204 4.85171 16.6375C6.24588 17.3068 7.61217 17.761 8.95057 18.0001Z" fill="#97A5FF"/>
</svg>
